<svg xmlns="http://www.w3.org/2000/svg" version="1.1" xmlns:xlink="http://www.w3.org/1999/xlink" xmlns:svgjs="http://svgjs.dev/svgjs" width="1440" height="560" preserveAspectRatio="none" viewBox="0 0 1440 560"><g mask="url(&quot;#SvgjsMask1070&quot;)" fill="none"><path d="M65.28 263.8L128.5 300.3L128.5 373.3L65.28 409.8L2.06 373.3L2.06 300.3zM2.06 373.3L65.28 409.8L65.28 482.8L2.06 519.3L-61.16 482.8L-61.16 409.8zM128.5 154.3L191.72 190.8L191.72 263.8L128.5 300.3L65.28 263.8L65.28 190.8zM191.72 263.8L254.95 300.3L254.95 373.3L191.72 409.8L128.5 373.3L128.5 300.3zM191.72 482.8L254.95 519.3L254.95 592.3L191.72 628.8L128.5 592.3L128.5 519.3zM318.17 263.8L381.39 300.3L381.39 373.3L318.17 409.8L254.95 373.3L254.95 300.3zM254.95 373.3L318.17 409.8L318.17 482.8L254.95 519.3L191.72 482.8L191.72 409.8zM444.61 44.8L507.83 81.3L507.83 154.3L444.61 190.8L381.39 154.3L381.39 81.3zM444.61 482.8L507.83 519.3L507.83 592.3L444.61 628.8L381.39 592.3L381.39 519.3zM571.05 44.8L634.28 81.3L634.28 154.3L571.05 190.8L507.83 154.3L507.83 81.3zM697.5 263.8L760.72 300.3L760.72 373.3L697.5 409.8L634.28 373.3L634.28 300.3zM697.5 482.8L760.72 519.3L760.72 592.3L697.5 628.8L634.28 592.3L634.28 519.3zM823.94 482.8L887.16 519.3L887.16 592.3L823.94 628.8L760.72 592.3L760.72 519.3zM950.38 44.8L1013.61 81.3L1013.61 154.3L950.38 190.8L887.16 154.3L887.16 81.3zM887.16 154.3L950.38 190.8L950.38 263.8L887.16 300.3L823.94 263.8L823.94 190.8zM1013.61 -64.7L1076.83 -28.2L1076.83 44.8L1013.61 81.3L950.38 44.8L950.38 -28.2zM1013.61 154.3L1076.83 190.8L1076.83 263.8L1013.61 300.3L950.38 263.8L950.38 190.8zM1140.05 -64.7L1203.27 -28.2L1203.27 44.8L1140.05 81.3L1076.83 44.8L1076.83 -28.2zM1140.05 373.3L1203.27 409.8L1203.27 482.8L1140.05 519.3L1076.83 482.8L1076.83 409.8zM1203.27 482.8L1266.49 519.3L1266.49 592.3L1203.27 628.8L1140.05 592.3L1140.05 519.3zM1266.49 154.3L1329.71 190.8L1329.71 263.8L1266.49 300.3L1203.27 263.8L1203.27 190.8zM1266.49 373.3L1329.71 409.8L1329.71 482.8L1266.49 519.3L1203.27 482.8L1203.27 409.8zM1456.16 44.8L1519.38 81.3L1519.38 154.3L1456.16 190.8L1392.94 154.3L1392.94 81.3zM1392.94 154.3L1456.16 190.8L1456.16 263.8L1392.94 300.3L1329.71 263.8L1329.71 190.8z" stroke="rgba(0, 0, 0, 0.57)" stroke-width="2"></path><path d="M57.98 263.8 a7.3 7.3 0 1 0 14.6 0 a7.3 7.3 0 1 0 -14.6 0zM121.2 300.3 a7.3 7.3 0 1 0 14.6 0 a7.3 7.3 0 1 0 -14.6 0zM121.2 373.3 a7.3 7.3 0 1 0 14.6 0 a7.3 7.3 0 1 0 -14.6 0zM57.98 409.8 a7.3 7.3 0 1 0 14.6 0 a7.3 7.3 0 1 0 -14.6 0zM-5.24 373.3 a7.3 7.3 0 1 0 14.6 0 a7.3 7.3 0 1 0 -14.6 0zM-5.24 300.3 a7.3 7.3 0 1 0 14.6 0 a7.3 7.3 0 1 0 -14.6 0zM57.98 482.8 a7.3 7.3 0 1 0 14.6 0 a7.3 7.3 0 1 0 -14.6 0zM-5.24 519.3 a7.3 7.3 0 1 0 14.6 0 a7.3 7.3 0 1 0 -14.6 0zM-68.46 482.8 a7.3 7.3 0 1 0 14.6 0 a7.3 7.3 0 1 0 -14.6 0zM-68.46 409.8 a7.3 7.3 0 1 0 14.6 0 a7.3 7.3 0 1 0 -14.6 0zM121.2 154.3 a7.3 7.3 0 1 0 14.6 0 a7.3 7.3 0 1 0 -14.6 0zM184.42 190.8 a7.3 7.3 0 1 0 14.6 0 a7.3 7.3 0 1 0 -14.6 0zM184.42 263.8 a7.3 7.3 0 1 0 14.6 0 a7.3 7.3 0 1 0 -14.6 0zM57.98 190.8 a7.3 7.3 0 1 0 14.6 0 a7.3 7.3 0 1 0 -14.6 0zM247.65 300.3 a7.3 7.3 0 1 0 14.6 0 a7.3 7.3 0 1 0 -14.6 0zM247.65 373.3 a7.3 7.3 0 1 0 14.6 0 a7.3 7.3 0 1 0 -14.6 0zM184.42 409.8 a7.3 7.3 0 1 0 14.6 0 a7.3 7.3 0 1 0 -14.6 0zM184.42 482.8 a7.3 7.3 0 1 0 14.6 0 a7.3 7.3 0 1 0 -14.6 0zM247.65 519.3 a7.3 7.3 0 1 0 14.6 0 a7.3 7.3 0 1 0 -14.6 0zM247.65 592.3 a7.3 7.3 0 1 0 14.6 0 a7.3 7.3 0 1 0 -14.6 0zM184.42 628.8 a7.3 7.3 0 1 0 14.6 0 a7.3 7.3 0 1 0 -14.6 0zM121.2 592.3 a7.3 7.3 0 1 0 14.6 0 a7.3 7.3 0 1 0 -14.6 0zM121.2 519.3 a7.3 7.3 0 1 0 14.6 0 a7.3 7.3 0 1 0 -14.6 0zM310.87 263.8 a7.3 7.3 0 1 0 14.6 0 a7.3 7.3 0 1 0 -14.6 0zM374.09 300.3 a7.3 7.3 0 1 0 14.6 0 a7.3 7.3 0 1 0 -14.6 0zM374.09 373.3 a7.3 7.3 0 1 0 14.6 0 a7.3 7.3 0 1 0 -14.6 0zM310.87 409.8 a7.3 7.3 0 1 0 14.6 0 a7.3 7.3 0 1 0 -14.6 0zM310.87 482.8 a7.3 7.3 0 1 0 14.6 0 a7.3 7.3 0 1 0 -14.6 0zM437.31 44.8 a7.3 7.3 0 1 0 14.6 0 a7.3 7.3 0 1 0 -14.6 0zM500.53 81.3 a7.3 7.3 0 1 0 14.6 0 a7.3 7.3 0 1 0 -14.6 0zM500.53 154.3 a7.3 7.3 0 1 0 14.6 0 a7.3 7.3 0 1 0 -14.6 0zM437.31 190.8 a7.3 7.3 0 1 0 14.6 0 a7.3 7.3 0 1 0 -14.6 0zM374.09 154.3 a7.3 7.3 0 1 0 14.6 0 a7.3 7.3 0 1 0 -14.6 0zM374.09 81.3 a7.3 7.3 0 1 0 14.6 0 a7.3 7.3 0 1 0 -14.6 0zM437.31 482.8 a7.3 7.3 0 1 0 14.6 0 a7.3 7.3 0 1 0 -14.6 0zM500.53 519.3 a7.3 7.3 0 1 0 14.6 0 a7.3 7.3 0 1 0 -14.6 0zM500.53 592.3 a7.3 7.3 0 1 0 14.6 0 a7.3 7.3 0 1 0 -14.6 0zM437.31 628.8 a7.3 7.3 0 1 0 14.6 0 a7.3 7.3 0 1 0 -14.6 0zM374.09 592.3 a7.3 7.3 0 1 0 14.6 0 a7.3 7.3 0 1 0 -14.6 0zM374.09 519.3 a7.3 7.3 0 1 0 14.6 0 a7.3 7.3 0 1 0 -14.6 0zM563.75 44.8 a7.3 7.3 0 1 0 14.6 0 a7.3 7.3 0 1 0 -14.6 0zM626.98 81.3 a7.3 7.3 0 1 0 14.6 0 a7.3 7.3 0 1 0 -14.6 0zM626.98 154.3 a7.3 7.3 0 1 0 14.6 0 a7.3 7.3 0 1 0 -14.6 0zM563.75 190.8 a7.3 7.3 0 1 0 14.6 0 a7.3 7.3 0 1 0 -14.6 0zM690.2 263.8 a7.3 7.3 0 1 0 14.6 0 a7.3 7.3 0 1 0 -14.6 0zM753.42 300.3 a7.3 7.3 0 1 0 14.6 0 a7.3 7.3 0 1 0 -14.6 0zM753.42 373.3 a7.3 7.3 0 1 0 14.6 0 a7.3 7.3 0 1 0 -14.6 0zM690.2 409.8 a7.3 7.3 0 1 0 14.6 0 a7.3 7.3 0 1 0 -14.6 0zM626.98 373.3 a7.3 7.3 0 1 0 14.6 0 a7.3 7.3 0 1 0 -14.6 0zM626.98 300.3 a7.3 7.3 0 1 0 14.6 0 a7.3 7.3 0 1 0 -14.6 0zM690.2 482.8 a7.3 7.3 0 1 0 14.6 0 a7.3 7.3 0 1 0 -14.6 0zM753.42 519.3 a7.3 7.3 0 1 0 14.6 0 a7.3 7.3 0 1 0 -14.6 0zM753.42 592.3 a7.3 7.3 0 1 0 14.6 0 a7.3 7.3 0 1 0 -14.6 0zM690.2 628.8 a7.3 7.3 0 1 0 14.6 0 a7.3 7.3 0 1 0 -14.6 0zM626.98 592.3 a7.3 7.3 0 1 0 14.6 0 a7.3 7.3 0 1 0 -14.6 0zM626.98 519.3 a7.3 7.3 0 1 0 14.6 0 a7.3 7.3 0 1 0 -14.6 0zM816.64 482.8 a7.3 7.3 0 1 0 14.6 0 a7.3 7.3 0 1 0 -14.6 0zM879.86 519.3 a7.3 7.3 0 1 0 14.6 0 a7.3 7.3 0 1 0 -14.6 0zM879.86 592.3 a7.3 7.3 0 1 0 14.6 0 a7.3 7.3 0 1 0 -14.6 0zM816.64 628.8 a7.3 7.3 0 1 0 14.6 0 a7.3 7.3 0 1 0 -14.6 0zM943.08 44.8 a7.3 7.3 0 1 0 14.6 0 a7.3 7.3 0 1 0 -14.6 0zM1006.31 81.3 a7.3 7.3 0 1 0 14.6 0 a7.3 7.3 0 1 0 -14.6 0zM1006.31 154.3 a7.3 7.3 0 1 0 14.6 0 a7.3 7.3 0 1 0 -14.6 0zM943.08 190.8 a7.3 7.3 0 1 0 14.6 0 a7.3 7.3 0 1 0 -14.6 0zM879.86 154.3 a7.3 7.3 0 1 0 14.6 0 a7.3 7.3 0 1 0 -14.6 0zM879.86 81.3 a7.3 7.3 0 1 0 14.6 0 a7.3 7.3 0 1 0 -14.6 0zM943.08 263.8 a7.3 7.3 0 1 0 14.6 0 a7.3 7.3 0 1 0 -14.6 0zM879.86 300.3 a7.3 7.3 0 1 0 14.6 0 a7.3 7.3 0 1 0 -14.6 0zM816.64 263.8 a7.3 7.3 0 1 0 14.6 0 a7.3 7.3 0 1 0 -14.6 0zM816.64 190.8 a7.3 7.3 0 1 0 14.6 0 a7.3 7.3 0 1 0 -14.6 0zM1006.31 -64.7 a7.3 7.3 0 1 0 14.6 0 a7.3 7.3 0 1 0 -14.6 0zM1069.53 -28.2 a7.3 7.3 0 1 0 14.6 0 a7.3 7.3 0 1 0 -14.6 0zM1069.53 44.8 a7.3 7.3 0 1 0 14.6 0 a7.3 7.3 0 1 0 -14.6 0zM943.08 -28.2 a7.3 7.3 0 1 0 14.6 0 a7.3 7.3 0 1 0 -14.6 0zM1069.53 190.8 a7.3 7.3 0 1 0 14.6 0 a7.3 7.3 0 1 0 -14.6 0zM1069.53 263.8 a7.3 7.3 0 1 0 14.6 0 a7.3 7.3 0 1 0 -14.6 0zM1006.31 300.3 a7.3 7.3 0 1 0 14.6 0 a7.3 7.3 0 1 0 -14.6 0zM1132.75 -64.7 a7.3 7.3 0 1 0 14.6 0 a7.3 7.3 0 1 0 -14.6 0zM1195.97 -28.2 a7.3 7.3 0 1 0 14.6 0 a7.3 7.3 0 1 0 -14.6 0zM1195.97 44.8 a7.3 7.3 0 1 0 14.6 0 a7.3 7.3 0 1 0 -14.6 0zM1132.75 81.3 a7.3 7.3 0 1 0 14.6 0 a7.3 7.3 0 1 0 -14.6 0zM1132.75 373.3 a7.3 7.3 0 1 0 14.6 0 a7.3 7.3 0 1 0 -14.6 0zM1195.97 409.8 a7.3 7.3 0 1 0 14.6 0 a7.3 7.3 0 1 0 -14.6 0zM1195.97 482.8 a7.3 7.3 0 1 0 14.6 0 a7.3 7.3 0 1 0 -14.6 0zM1132.75 519.3 a7.3 7.3 0 1 0 14.6 0 a7.3 7.3 0 1 0 -14.6 0zM1069.53 482.8 a7.3 7.3 0 1 0 14.6 0 a7.3 7.3 0 1 0 -14.6 0zM1069.53 409.8 a7.3 7.3 0 1 0 14.6 0 a7.3 7.3 0 1 0 -14.6 0zM1259.19 519.3 a7.3 7.3 0 1 0 14.6 0 a7.3 7.3 0 1 0 -14.6 0zM1259.19 592.3 a7.3 7.3 0 1 0 14.6 0 a7.3 7.3 0 1 0 -14.6 0zM1195.97 628.8 a7.3 7.3 0 1 0 14.6 0 a7.3 7.3 0 1 0 -14.6 0zM1132.75 592.3 a7.3 7.3 0 1 0 14.6 0 a7.3 7.3 0 1 0 -14.6 0zM1259.19 154.3 a7.3 7.3 0 1 0 14.6 0 a7.3 7.3 0 1 0 -14.6 0zM1322.41 190.8 a7.3 7.3 0 1 0 14.6 0 a7.3 7.3 0 1 0 -14.6 0zM1322.41 263.8 a7.3 7.3 0 1 0 14.6 0 a7.3 7.3 0 1 0 -14.6 0zM1259.19 300.3 a7.3 7.3 0 1 0 14.6 0 a7.3 7.3 0 1 0 -14.6 0zM1195.97 263.8 a7.3 7.3 0 1 0 14.6 0 a7.3 7.3 0 1 0 -14.6 0zM1195.97 190.8 a7.3 7.3 0 1 0 14.6 0 a7.3 7.3 0 1 0 -14.6 0zM1259.19 373.3 a7.3 7.3 0 1 0 14.6 0 a7.3 7.3 0 1 0 -14.6 0zM1322.41 409.8 a7.3 7.3 0 1 0 14.6 0 a7.3 7.3 0 1 0 -14.6 0zM1322.41 482.8 a7.3 7.3 0 1 0 14.6 0 a7.3 7.3 0 1 0 -14.6 0zM1448.86 44.8 a7.3 7.3 0 1 0 14.6 0 a7.3 7.3 0 1 0 -14.6 0zM1512.08 81.3 a7.3 7.3 0 1 0 14.6 0 a7.3 7.3 0 1 0 -14.6 0zM1512.08 154.3 a7.3 7.3 0 1 0 14.6 0 a7.3 7.3 0 1 0 -14.6 0zM1448.86 190.8 a7.3 7.3 0 1 0 14.6 0 a7.3 7.3 0 1 0 -14.6 0zM1385.64 154.3 a7.3 7.3 0 1 0 14.6 0 a7.3 7.3 0 1 0 -14.6 0zM1385.64 81.3 a7.3 7.3 0 1 0 14.6 0 a7.3 7.3 0 1 0 -14.6 0zM1448.86 263.8 a7.3 7.3 0 1 0 14.6 0 a7.3 7.3 0 1 0 -14.6 0zM1385.64 300.3 a7.3 7.3 0 1 0 14.6 0 a7.3 7.3 0 1 0 -14.6 0z" fill="rgba(0, 0, 0, 0.57)"></path><path d="M4.4 276.91L47.7 301.91L47.7 351.91L4.4 376.91L-38.9 351.91L-38.9 301.91zM47.7 501.91L91.01 526.91L91.01 576.91L47.7 601.91L4.4 576.91L4.4 526.91zM91.01 276.91L134.31 301.91L134.31 351.91L91.01 376.91L47.7 351.91L47.7 301.91zM177.61 126.91L220.91 151.91L220.91 201.91L177.61 226.91L134.31 201.91L134.31 151.91zM220.91 201.91L264.21 226.91L264.21 276.91L220.91 301.91L177.61 276.91L177.61 226.91zM177.61 276.91L220.91 301.91L220.91 351.91L177.61 376.91L134.31 351.91L134.31 301.91zM220.91 501.91L264.21 526.91L264.21 576.91L220.91 601.91L177.61 576.91L177.61 526.91zM307.52 51.91L350.82 76.91L350.82 126.91L307.52 151.91L264.21 126.91L264.21 76.91zM264.21 126.91L307.52 151.91L307.52 201.91L264.21 226.91L220.91 201.91L220.91 151.91zM264.21 276.91L307.52 301.91L307.52 351.91L264.21 376.91L220.91 351.91L220.91 301.91zM394.12 201.91L437.43 226.91L437.43 276.91L394.12 301.91L350.82 276.91L350.82 226.91zM350.82 426.91L394.12 451.91L394.12 501.91L350.82 526.91L307.52 501.91L307.52 451.91zM480.73 51.91L524.03 76.91L524.03 126.91L480.73 151.91L437.43 126.91L437.43 76.91zM480.73 201.91L524.03 226.91L524.03 276.91L480.73 301.91L437.43 276.91L437.43 226.91zM437.43 276.91L480.73 301.91L480.73 351.91L437.43 376.91L394.12 351.91L394.12 301.91zM480.73 351.91L524.03 376.91L524.03 426.91L480.73 451.91L437.43 426.91L437.43 376.91zM524.03 -23.09L567.33 1.91L567.33 51.91L524.03 76.91L480.73 51.91L480.73 1.91zM567.33 51.91L610.63 76.91L610.63 126.91L567.33 151.91L524.03 126.91L524.03 76.91zM567.33 201.91L610.63 226.91L610.63 276.91L567.33 301.91L524.03 276.91L524.03 226.91zM524.03 426.91L567.33 451.91L567.33 501.91L524.03 526.91L480.73 501.91L480.73 451.91zM610.63 -23.09L653.94 1.91L653.94 51.91L610.63 76.91L567.33 51.91L567.33 1.91zM653.94 51.91L697.24 76.91L697.24 126.91L653.94 151.91L610.63 126.91L610.63 76.91zM610.63 276.91L653.94 301.91L653.94 351.91L610.63 376.91L567.33 351.91L567.33 301.91zM653.94 351.91L697.24 376.91L697.24 426.91L653.94 451.91L610.63 426.91L610.63 376.91zM610.63 426.91L653.94 451.91L653.94 501.91L610.63 526.91L567.33 501.91L567.33 451.91zM740.54 201.91L783.85 226.91L783.85 276.91L740.54 301.91L697.24 276.91L697.24 226.91zM783.85 126.91L827.15 151.91L827.15 201.91L783.85 226.91L740.54 201.91L740.54 151.91zM827.15 201.91L870.45 226.91L870.45 276.91L827.15 301.91L783.85 276.91L783.85 226.91zM783.85 276.91L827.15 301.91L827.15 351.91L783.85 376.91L740.54 351.91L740.54 301.91zM913.75 201.91L957.06 226.91L957.06 276.91L913.75 301.91L870.45 276.91L870.45 226.91zM913.75 351.91L957.06 376.91L957.06 426.91L913.75 451.91L870.45 426.91L870.45 376.91zM870.45 426.91L913.75 451.91L913.75 501.91L870.45 526.91L827.15 501.91L827.15 451.91zM957.06 -23.09L1000.36 1.91L1000.36 51.91L957.06 76.91L913.75 51.91L913.75 1.91zM1000.36 51.91L1043.66 76.91L1043.66 126.91L1000.36 151.91L957.06 126.91L957.06 76.91zM957.06 126.91L1000.36 151.91L1000.36 201.91L957.06 226.91L913.75 201.91L913.75 151.91zM957.06 276.91L1000.36 301.91L1000.36 351.91L957.06 376.91L913.75 351.91L913.75 301.91zM1000.36 351.91L1043.66 376.91L1043.66 426.91L1000.36 451.91L957.06 426.91L957.06 376.91zM957.06 426.91L1000.36 451.91L1000.36 501.91L957.06 526.91L913.75 501.91L913.75 451.91zM1000.36 501.91L1043.66 526.91L1043.66 576.91L1000.36 601.91L957.06 576.91L957.06 526.91zM1043.66 -23.09L1086.96 1.91L1086.96 51.91L1043.66 76.91L1000.36 51.91L1000.36 1.91zM1043.66 276.91L1086.96 301.91L1086.96 351.91L1043.66 376.91L1000.36 351.91L1000.36 301.91zM1086.96 501.91L1130.27 526.91L1130.27 576.91L1086.96 601.91L1043.66 576.91L1043.66 526.91zM1130.27 126.91L1173.57 151.91L1173.57 201.91L1130.27 226.91L1086.96 201.91L1086.96 151.91zM1130.27 426.91L1173.57 451.91L1173.57 501.91L1130.27 526.91L1086.96 501.91L1086.96 451.91zM1173.57 501.91L1216.87 526.91L1216.87 576.91L1173.57 601.91L1130.27 576.91L1130.27 526.91zM1216.87 -23.09L1260.17 1.91L1260.17 51.91L1216.87 76.91L1173.57 51.91L1173.57 1.91zM1216.87 126.91L1260.17 151.91L1260.17 201.91L1216.87 226.91L1173.57 201.91L1173.57 151.91zM1303.48 126.91L1346.78 151.91L1346.78 201.91L1303.48 226.91L1260.17 201.91L1260.17 151.91zM1346.78 351.91L1390.08 376.91L1390.08 426.91L1346.78 451.91L1303.48 426.91L1303.48 376.91zM1390.08 -23.09L1433.38 1.91L1433.38 51.91L1390.08 76.91L1346.78 51.91L1346.78 1.91zM1433.38 351.91L1476.69 376.91L1476.69 426.91L1433.38 451.91L1390.08 426.91L1390.08 376.91zM1390.08 426.91L1433.38 451.91L1433.38 501.91L1390.08 526.91L1346.78 501.91L1346.78 451.91z" stroke="rgba(0, 4, 8, 0.57)" stroke-width="2"></path></g><defs><mask id="SvgjsMask1070"><rect width="1440" height="560" fill="#ffffff"></rect></mask></defs></svg>